<?xml version="1.0" encoding="UTF-8" standalone="no"?>
<!-- Created with Inkscape (http://www.inkscape.org/) -->

<svg
   xmlns:dc="http://purl.org/dc/elements/1.1/"
   xmlns:cc="http://creativecommons.org/ns#"
   xmlns:rdf="http://www.w3.org/1999/02/22-rdf-syntax-ns#"
   xmlns:svg="http://www.w3.org/2000/svg"
   xmlns="http://www.w3.org/2000/svg"
   xmlns:xlink="http://www.w3.org/1999/xlink"
   xmlns:sodipodi="http://sodipodi.sourceforge.net/DTD/sodipodi-0.dtd"
   xmlns:inkscape="http://www.inkscape.org/namespaces/inkscape"
   width="124.21425mm"
   height="86.689995mm"
   viewBox="0 0 124.21425 86.689995"
   version="1.1"
   id="svg8"
   inkscape:version="0.92.4 (5da689c313, 2019-01-14)"
   sodipodi:docname="TGBotDevList_Transparent.svg"
   inkscape:export-filename="C:\Users\Hinrich Mahler\Desktop\TGBotDevList.png"
   inkscape:export-xdpi="246"
   inkscape:export-ydpi="246">
  <defs
     id="defs2">
    <linearGradient
       inkscape:collect="always"
       id="linearGradient1058">
      <stop
         style="stop-color:#1e96c8;stop-opacity:1"
         offset="0"
         id="stop1054" />
      <stop
         style="stop-color:#37aee2;stop-opacity:1"
         offset="1"
         id="stop1056" />
    </linearGradient>
    <linearGradient
       inkscape:collect="always"
       xlink:href="#linearGradient1058"
       id="linearGradient1060"
       x1="106.30199"
       y1="159.39604"
       x2="187.67567"
       y2="50.87553"
       gradientUnits="userSpaceOnUse"
       gradientTransform="matrix(1.0836233,0,0,1.0836233,167.36092,-45.075014)" />
  </defs>
  <sodipodi:namedview
     id="base"
     pagecolor="#ffffff"
     bordercolor="#666666"
     borderopacity="1.0"
     inkscape:pageopacity="0.0"
     inkscape:pageshadow="2"
     inkscape:zoom="1.5257639"
     inkscape:cx="108.89699"
     inkscape:cy="239.06899"
     inkscape:document-units="mm"
     inkscape:current-layer="layer1"
     showgrid="false"
     inkscape:snap-text-baseline="false"
     inkscape:window-width="1800"
     inkscape:window-height="1059"
     inkscape:window-x="-9"
     inkscape:window-y="-9"
     inkscape:window-maximized="1" />
  <metadata
     id="metadata5">
    <rdf:RDF>
      <cc:Work
         rdf:about="">
        <dc:format>image/svg+xml</dc:format>
        <dc:type
           rdf:resource="http://purl.org/dc/dcmitype/StillImage" />
        <dc:title></dc:title>
      </cc:Work>
    </rdf:RDF>
  </metadata>
  <g
     inkscape:label="Ebene 1"
     inkscape:groupmode="layer"
     id="layer1"
     transform="translate(-91.496299,-53.625916)">
    <g
       id="g824"
       transform="translate(2.4693594)">
      <circle
         r="43.344933"
         cy="96.970848"
         cx="132.37187"
         id="path948"
         style="opacity:1;fill:#a9c9dd;fill-opacity:1;stroke:none;stroke-width:0.53085721;stroke-linecap:round;stroke-miterlimit:4;stroke-dasharray:none;stroke-opacity:1;paint-order:stroke markers fill" />
      <path
         id="rect935"
         d="m 132.37199,67.204635 a 14.414151,14.414151 0 0 0 -14.41439,14.41439 14.414151,14.414151 0 0 0 14.41439,14.413827 14.414151,14.414151 0 0 0 14.41383,-14.413827 14.414151,14.414151 0 0 0 -14.41383,-14.41439 z m -12.86493,34.041615 c -8.95807,0 -16.16936,7.94415 -16.16936,17.81178 v 10.03032 a 43.344932,43.344932 0 0 0 29.03429,11.22756 43.344932,43.344932 0 0 0 29.0343,-11.22868 v -10.0292 c 0,-9.86763 -7.21186,-17.81178 -16.16993,-17.81178 z"
         style="opacity:1;fill:#c8daea;fill-opacity:1;stroke:none;stroke-width:0.66902548;stroke-linecap:round;stroke-miterlimit:4;stroke-dasharray:none;stroke-opacity:1;paint-order:stroke markers fill"
         inkscape:connector-curvature="0" />
      <path
         inkscape:connector-curvature="0"
         id="path1073"
         d="m 190.86728,65.493343 c -1.75539,0 -3.13818,0.470342 -4.14776,1.411704 -1.00958,0.941362 -1.51418,2.233349 -1.51418,3.875049 0,1.623505 0.49592,2.91003 1.4873,3.860486 0.99139,0.945909 2.33501,1.418984 4.03128,1.418984 0.75036,0 1.47791,-0.07938 2.1828,-0.23855 0.70489,-0.159169 1.38458,-0.39788 2.03943,-0.716213 v -4.898125 h -4.09287 v 1.76001 h 1.60321 v 1.978402 c -0.18645,0.07276 -0.39798,0.127132 -0.63445,0.163513 -0.23193,0.03184 -0.48423,0.04816 -0.75709,0.04816 -1.00503,0 -1.78043,-0.293638 -2.32615,-0.880284 -0.54571,-0.586647 -0.81869,-1.418592 -0.81869,-2.496381 0,-1.086887 0.28222,-1.921565 0.84613,-2.503661 0.56846,-0.586649 1.37539,-0.879725 2.42134,-0.879725 0.56391,0 1.12562,0.07938 1.68498,0.23855 0.5639,0.159166 1.12996,0.400047 1.69841,0.72293 v -2.107756 c -0.55026,-0.250122 -1.13642,-0.438802 -1.75945,-0.566138 -0.61848,-0.127333 -1.26664,-0.190953 -1.94424,-0.190953 z m -15.8121,0.184233 v 1.985122 h 3.38339 v 8.199197 h 2.6263 v -8.199197 h 3.37666 v -1.985122 z m 9.48603,17.462909 v 10.184319 h 4.35886 c 1.3552,0 2.36497,-0.240881 3.02893,-0.722933 0.66394,-0.482049 0.99564,-1.214501 0.99564,-2.196791 0,-0.641218 -0.15443,-1.182254 -0.46367,-1.623376 -0.30923,-0.441121 -0.74587,-0.74345 -1.30978,-0.907166 0.44112,-0.168264 0.77771,-0.42547 1.00964,-0.771089 0.23193,-0.350168 0.34774,-0.772657 0.34774,-1.26835 0,-0.941362 -0.31809,-1.625959 -0.95476,-2.053439 -0.63212,-0.427477 -1.65548,-0.641175 -3.0698,-0.641175 z m 20.36191,0.375187 v 2.169352 h -1.21403 v 1.746013 h 1.21403 v 3.240032 c 0,0.964098 0.2001,1.648698 0.6003,2.053439 0.40474,0.400193 1.08934,0.600296 2.05344,0.600296 h 2.09432 v -1.74601 h -1.25548 c -0.41838,0 -0.69787,-0.06145 -0.83884,-0.184233 -0.14098,-0.127333 -0.21167,-0.368777 -0.21167,-0.723492 v -3.240032 h 2.5171 v -1.746013 h -2.5171 v -2.169352 z m -17.73562,1.411704 h 1.45314 c 0.41384,0 0.72759,0.09354 0.94133,0.279989 0.21373,0.181905 0.3203,0.447798 0.3203,0.797967 0,0.354716 -0.10657,0.623342 -0.3203,0.80525 -0.21374,0.181905 -0.52749,0.272709 -0.94133,0.272709 h -1.45314 z m 11.54171,0.573418 c -1.31882,0 -2.35087,0.354524 -3.09668,1.063956 -0.74127,0.709431 -1.11212,1.692014 -1.11212,2.947164 0,1.255147 0.37085,2.237171 1.11212,2.946602 0.74581,0.709432 1.77786,1.063959 3.09668,1.063959 1.31427,0 2.3398,-0.354527 3.07651,-1.063959 0.74128,-0.709431 1.11212,-1.691455 1.11212,-2.946602 0,-1.25515 -0.37084,-2.237733 -1.11212,-2.947164 -0.73671,-0.709432 -1.76224,-1.063956 -3.07651,-1.063956 z m 0,1.74601 c 0.53207,0 0.93936,0.195759 1.22131,0.586858 0.28195,0.386549 0.42278,0.946081 0.42278,1.678252 0,0.732171 -0.14083,1.293317 -0.42278,1.684413 -0.28195,0.38655 -0.68924,0.580138 -1.22131,0.580138 -0.54117,0 -0.95497,-0.193588 -1.24147,-0.580138 -0.28195,-0.391096 -0.42279,-0.952242 -0.42279,-1.684413 0,-0.732171 0.14084,-1.291703 0.42279,-1.678252 0.2865,-0.391099 0.7003,-0.586858 1.24147,-0.586858 z M 187.1675,88.87018 h 1.54162 c 0.53208,0 0.93011,0.111472 1.19388,0.334308 0.26376,0.218285 0.39534,0.548359 0.39534,0.98948 0,0.450219 -0.13375,0.786806 -0.40207,1.009639 -0.26376,0.222836 -0.65962,0.333746 -1.18715,0.333746 h -1.54162 z m -2.61061,11.73322 v 10.18431 h 2.76965 c 1.528,0 2.67426,-0.1093 3.43826,-0.32758 0.76401,-0.22284 1.41869,-0.59804 1.9644,-1.12556 0.4775,-0.45931 0.83203,-0.98892 1.06396,-1.58922 0.23193,-0.60483 0.34831,-1.29161 0.34831,-2.06015 0,-0.75947 -0.11638,-1.43916 -0.34831,-2.03944 -0.23193,-0.6003 -0.58646,-1.12991 -1.06396,-1.58922 -0.54116,-0.52753 -1.1915,-0.90055 -1.95096,-1.11884 -0.75491,-0.22283 -1.90551,-0.3343 -3.4517,-0.3343 z m 2.62629,1.98512 h 0.94132 c 1.07779,0 1.89888,0.26372 2.46279,0.79125 0.56391,0.52752 0.84557,1.29584 0.84557,2.30543 0,1.01412 -0.28383,1.78734 -0.85229,2.31942 -0.5639,0.53207 -1.38282,0.79797 -2.45607,0.79797 h -0.94132 z m 12.52447,0.37518 c -1.31882,0 -2.35578,0.35669 -3.11068,1.07068 -0.75037,0.71398 -1.12556,1.69439 -1.12556,2.94044 0,1.2688 0.38172,2.25516 1.14572,2.96005 0.76856,0.70034 1.84411,1.05052 3.22659,1.05052 0.57755,0 1.15558,-0.0566 1.73313,-0.17024 0.57755,-0.10915 1.15502,-0.27281 1.73258,-0.4911 v -1.88264 c -0.56846,0.30923 -1.12365,0.54087 -1.66482,0.69549 -0.53662,0.15007 -1.06189,0.22511 -1.57578,0.22511 -0.63667,0 -1.13203,-0.143 -1.48674,-0.4295 -0.35474,-0.28651 -0.56192,-0.71663 -0.62101,-1.28963 h 5.70953 v -0.6955 c 0,-1.20966 -0.3616,-2.17592 -1.08468,-2.899 -0.71852,-0.72307 -1.6777,-1.08468 -2.87828,-1.08468 z m 4.84325,0.18424 3.00148,7.63977 h 2.68061 l 3.0082,-7.63977 h -2.44878 l -1.89609,5.27947 -1.90336,-5.27947 z m -4.85725,1.43914 c 0.43657,0 0.78948,0.143 1.0578,0.4295 0.27286,0.28196 0.40934,0.65498 0.40934,1.11884 h -3.17227 c 0.0728,-0.50024 0.2571,-0.88195 0.55269,-1.14572 0.2956,-0.26831 0.67948,-0.40262 1.15244,-0.40262 z m -14.35167,13.04972 v 1.99184 h 2.44206 v -1.99184 z m -8.78606,0.42951 v 10.18431 h 7.23716 v -1.98512 h -4.61086 v -8.19919 z m 22.13537,0.37518 v 2.16935 h -1.21403 v 1.74602 h 1.21403 v 3.24059 c 0,0.9641 0.20011,1.64814 0.60029,2.05288 0.40474,0.40019 1.08934,0.60029 2.05344,0.60029 h 2.09432 v -1.74601 h -1.25547 c -0.41838,0 -0.69787,-0.0614 -0.83885,-0.18423 -0.14098,-0.12733 -0.21167,-0.36821 -0.21167,-0.72293 v -3.24059 h 2.5171 v -1.74602 h -2.5171 v -2.16935 z m -5.61378,1.98512 c -1.14601,0 -1.99644,0.1952 -2.55126,0.5863 -0.55481,0.39109 -0.83269,0.99141 -0.83269,1.80089 0,0.75036 0.2186,1.30989 0.65518,1.67825 0.43657,0.36835 1.19838,0.62066 2.28527,0.75709 l 0.4295,0.0549 c 0.49569,0.0591 0.82577,0.14285 0.98948,0.25199 0.16827,0.1046 0.25199,0.26609 0.25199,0.48438 0,0.25922 -0.12016,0.45497 -0.36118,0.58686 -0.24103,0.13187 -0.60046,0.19767 -1.07796,0.19767 -0.52752,0 -1.04846,-0.0593 -1.56234,-0.17751 -0.50934,-0.11824 -1.00686,-0.2955 -1.49346,-0.53198 v 1.85577 c 0.56845,0.15916 1.12091,0.27715 1.65753,0.35446 0.54117,0.0819 1.06427,0.12264 1.56906,0.12264 1.19148,0 2.08704,-0.20446 2.68733,-0.61374 0.60029,-0.40928 0.90045,-1.02102 0.90045,-1.83505 0,-0.77764 -0.21587,-1.34803 -0.6479,-1.71185 -0.43202,-0.36381 -1.27321,-0.62536 -2.52381,-0.78453 l -0.43007,-0.0616 c -0.44112,-0.05 -0.74779,-0.12723 -0.9206,-0.23183 -0.16827,-0.10459 -0.25255,-0.25467 -0.25255,-0.45022 0,-0.24103 0.11147,-0.41829 0.33431,-0.53198 0.22738,-0.11824 0.57266,-0.17751 1.03651,-0.17751 0.43203,0 0.89151,0.0544 1.37811,0.16351 0.4866,0.10914 0.9912,0.27338 1.51418,0.49166 v -1.85576 c -0.5821,-0.14555 -1.12096,-0.25268 -1.61666,-0.32087 -0.49569,-0.0682 -0.9682,-0.10192 -1.41842,-0.10192 z m -7.73553,0.18423 v 7.63978 h 2.44206 v -7.63978 z"
         style="font-style:normal;font-variant:normal;font-weight:bold;font-stretch:normal;font-size:39.99999237px;line-height:1.25;font-family:sans-serif;-inkscape-font-specification:'sans-serif, Bold';font-variant-ligatures:normal;font-variant-caps:normal;font-variant-numeric:normal;font-feature-settings:normal;text-align:justify;letter-spacing:0px;word-spacing:0px;writing-mode:lr-tb;text-anchor:start;fill:#ffffff;fill-opacity:1;stroke:none;stroke-width:0.34925899" />
    </g>
  </g>
</svg>
