<?xml version="1.0" encoding="UTF-8" standalone="no"?>
<!-- Created with Inkscape (http://www.inkscape.org/) -->

<svg
   xmlns:dc="http://purl.org/dc/elements/1.1/"
   xmlns:cc="http://creativecommons.org/ns#"
   xmlns:rdf="http://www.w3.org/1999/02/22-rdf-syntax-ns#"
   xmlns:svg="http://www.w3.org/2000/svg"
   xmlns="http://www.w3.org/2000/svg"
   xmlns:xlink="http://www.w3.org/1999/xlink"
   xmlns:sodipodi="http://sodipodi.sourceforge.net/DTD/sodipodi-0.dtd"
   xmlns:inkscape="http://www.inkscape.org/namespaces/inkscape"
   width="800mm"
   height="150mm"
   viewBox="0 0 800 150"
   version="1.1"
   id="svg8"
   inkscape:version="0.92.4 (5da689c313, 2019-01-14)"
   sodipodi:docname="TGBotDevList_Header.svg"
   inkscape:export-filename="C:\Users\Hinrich\PycharmProjects\tgbotdevlist.github.io\assets\logo\TGBotDevList_Header.png"
   inkscape:export-xdpi="40.639999"
   inkscape:export-ydpi="40.639999">
  <defs
     id="defs2">
    <linearGradient
       inkscape:collect="always"
       id="linearGradient1058">
      <stop
         style="stop-color:#1e96c8;stop-opacity:1"
         offset="0"
         id="stop1054" />
      <stop
         style="stop-color:#37aee2;stop-opacity:1"
         offset="1"
         id="stop1056" />
    </linearGradient>
    <linearGradient
       inkscape:collect="always"
       xlink:href="#linearGradient1058"
       id="linearGradient1060"
       x1="106.30199"
       y1="159.39604"
       x2="187.67567"
       y2="50.87553"
       gradientUnits="userSpaceOnUse"
       gradientTransform="matrix(1.0836233,0,0,1.0836233,167.36092,-45.075014)" />
    <linearGradient
       inkscape:collect="always"
       xlink:href="#linearGradient1058"
       id="linearGradient1121"
       x1="23.151041"
       y1="297"
       x2="173.15105"
       y2="146.99998"
       gradientUnits="userSpaceOnUse"
       gradientTransform="matrix(5.3333332,0,0,1,-616.09723,-125.02908)" />
    <linearGradient
       gradientUnits="userSpaceOnUse"
       y2="52"
       y1="11"
       x2="29"
       x1="46"
       id="a"
       gradientTransform="matrix(0.91810417,0,0,0.91810417,-50.272805,258.12358)">
      <stop
         id="stop825"
         offset="0"
         stop-color="#2aabee" />
      <stop
         id="stop827"
         offset="1"
         stop-color="#229ed9" />
    </linearGradient>
  </defs>
  <sodipodi:namedview
     id="base"
     pagecolor="#ffffff"
     bordercolor="#666666"
     borderopacity="1.0"
     inkscape:pageopacity="0.0"
     inkscape:pageshadow="2"
     inkscape:zoom="0.2697195"
     inkscape:cx="823.04003"
     inkscape:cy="1016.4154"
     inkscape:document-units="mm"
     inkscape:current-layer="layer1"
     showgrid="false"
     inkscape:snap-text-baseline="false"
     inkscape:window-width="1800"
     inkscape:window-height="1059"
     inkscape:window-x="-9"
     inkscape:window-y="-9"
     inkscape:window-maximized="1" />
  <metadata
     id="metadata5">
    <rdf:RDF>
      <cc:Work
         rdf:about="">
        <dc:format>image/svg+xml</dc:format>
        <dc:type
           rdf:resource="http://purl.org/dc/dcmitype/StillImage" />
        <dc:title />
      </cc:Work>
    </rdf:RDF>
  </metadata>
  <g
     inkscape:label="Ebene 1"
     inkscape:groupmode="layer"
     id="layer1"
     transform="translate(492.62503,-21.970909)">
    <rect
       style="opacity:1;fill:url(#linearGradient1121);fill-opacity:1;stroke:none;stroke-width:1.62831807;stroke-linecap:round;stroke-miterlimit:4;stroke-dasharray:none;stroke-opacity:1;paint-order:stroke markers fill"
       id="rect1113"
       width="800"
       height="150"
       x="-492.62503"
       y="21.970909"
       rx="0"
       ry="0" />
    <g
       id="g981"
       transform="translate(-1.5915218)"
       style="fill:#ffffff;fill-opacity:1">
      <path
         id="path834"
         d="m 308.10942,149.81047 c 0,0 3.30518,-1.28535 3.02975,1.8362 -0.0918,1.28535 -0.91811,5.78406 -1.56078,10.65001 l -2.20345,14.41424 c 0,0 -0.18362,2.11164 -1.83621,2.47888 -1.65259,0.36724 -4.13147,-1.28535 -4.59052,-1.65259 -0.36724,-0.27543 -6.88578,-4.4069 -9.18104,-6.42673 -0.64267,-0.55086 -1.37716,-1.65259 0.0918,-2.93793 l 9.64009,-9.18104 c 1.10173,-1.10173 2.20345,-3.67242 -2.38707,-0.55087 l -12.85346,8.72199 c 0,0 -1.46896,0.91811 -4.22328,0.0918 l -5.96767,-1.8362 c 0,0 -2.20345,-1.37716 1.56077,-2.75432 9.18105,-4.31509 20.47373,-8.72199 30.48106,-12.85345 z"
         inkscape:connector-curvature="0"
         style="fill:#ffffff;fill-opacity:1;stroke-width:0.91810417" />
      <path
         id="path834-8"
         d="m 261.09094,149.81047 c 0,0 3.30518,-1.28535 3.02975,1.8362 -0.0918,1.28535 -0.91811,5.78406 -1.56078,10.65001 l -2.20345,14.41424 c 0,0 -0.18362,2.11164 -1.83621,2.47888 -1.65259,0.36724 -4.13147,-1.28535 -4.59052,-1.65259 -0.36724,-0.27543 -6.88578,-4.4069 -9.18104,-6.42673 -0.64267,-0.55086 -1.37716,-1.65259 0.0918,-2.93793 l 9.64009,-9.18104 c 1.10173,-1.10173 2.20345,-3.67242 -2.38707,-0.55087 l -12.85346,8.72199 c 0,0 -1.46896,0.91811 -4.22328,0.0918 l -5.96767,-1.8362 c 0,0 -2.20345,-1.37716 1.56077,-2.75432 9.18105,-4.31509 20.47373,-8.72199 30.48106,-12.85345 z"
         inkscape:connector-curvature="0"
         style="fill:#ffffff;fill-opacity:1;stroke-width:0.91810417" />
      <path
         id="path834-8-5"
         d="m -115.0569,149.81047 c 0,0 3.30518,-1.28535 3.02975,1.8362 -0.0918,1.28535 -0.91811,5.78406 -1.56078,10.65001 l -2.20345,14.41424 c 0,0 -0.18362,2.11164 -1.83621,2.47889 -1.65259,0.36723 -4.13147,-1.28536 -4.59052,-1.65259 -0.36724,-0.27544 -6.88579,-4.40691 -9.18105,-6.42674 -0.64267,-0.55086 -1.37716,-1.65259 0.0918,-2.93793 l 9.6401,-9.18104 c 1.10173,-1.10173 2.20345,-3.67242 -2.38707,-0.55087 l -12.85347,8.72199 c 0,0 -1.46896,0.91811 -4.22328,0.0918 l -5.96767,-1.8362 c 0,0 -2.20345,-1.37716 1.56077,-2.75432 9.18105,-4.31509 20.47374,-8.72199 30.48107,-12.85345 z"
         inkscape:connector-curvature="0"
         style="fill:#ffffff;fill-opacity:1;stroke-width:0.91810417" />
      <path
         id="path834-8-5-7"
         d="m 25.998543,149.81047 c 0,0 3.30518,-1.28535 3.02975,1.8362 -0.0918,1.28535 -0.91811,5.78406 -1.56078,10.65001 l -2.20345,14.41424 c 0,0 -0.18362,2.11164 -1.83621,2.47889 -1.65259,0.36723 -4.13147,-1.28536 -4.59052,-1.65259 -0.36724,-0.27544 -6.885794,-4.40691 -9.1810542,-6.42674 -0.64267,-0.55086 -1.37716,-1.65259 0.0918,-2.93793 l 9.6401042,-9.18104 c 1.10173,-1.10173 2.20345,-3.67242 -2.38707,-0.55087 l -12.8534742,8.72199 c 0,0 -1.46896,0.91811 -4.22328004,0.0918 l -5.96766996,-1.8362 c 0,0 -2.20345,-1.37716 1.56077,-2.75432 9.18105,-4.31509 20.4737442,-8.72199 30.4810742,-12.85345 z"
         inkscape:connector-curvature="0"
         style="fill:#ffffff;fill-opacity:1;stroke-width:0.91810417" />
      <path
         id="path834-8-5-2"
         d="m 73.017022,149.81047 c 0,0 3.30518,-1.28535 3.02975,1.8362 -0.0918,1.28535 -0.91811,5.78406 -1.56078,10.65001 l -2.20345,14.41424 c 0,0 -0.18362,2.11164 -1.83621,2.47889 -1.65259,0.36723 -4.13147,-1.28536 -4.59052,-1.65259 -0.36724,-0.27544 -6.88579,-4.40691 -9.18105,-6.42674 -0.64267,-0.55086 -1.37716,-1.65259 0.0918,-2.93793 l 9.6401,-9.18104 c 1.10173,-1.10173 2.20345,-3.67242 -2.38707,-0.55087 l -12.85347,8.72199 c 0,0 -1.46896,0.91811 -4.22328,0.0918 l -5.96767,-1.8362 c 0,0 -2.20345,-1.37716 1.56077,-2.75432 9.18105,-4.31509 20.47374,-8.72199 30.48107,-12.85345 z"
         inkscape:connector-curvature="0"
         style="fill:#ffffff;fill-opacity:1;stroke-width:0.91810417" />
      <path
         id="path834-8-5-5"
         d="m 214.07246,149.81047 c 0,0 3.30518,-1.28535 3.02975,1.8362 -0.0918,1.28535 -0.91811,5.78406 -1.56078,10.65001 l -2.20345,14.41424 c 0,0 -0.18362,2.11164 -1.83621,2.47889 -1.65259,0.36723 -4.13147,-1.28536 -4.59052,-1.65259 -0.36724,-0.27544 -6.8858,-4.40691 -9.18106,-6.42674 -0.64267,-0.55086 -1.37716,-1.65259 0.0918,-2.93793 l 9.64011,-9.18104 c 1.10173,-1.10173 2.20345,-3.67242 -2.38707,-0.55087 l -12.85348,8.72199 c 0,0 -1.46896,0.91811 -4.22328,0.0918 l -5.96767,-1.8362 c 0,0 -2.20345,-1.37716 1.56077,-2.75432 9.18105,-4.31509 20.47375,-8.72199 30.48108,-12.85345 z"
         inkscape:connector-curvature="0"
         style="fill:#ffffff;fill-opacity:1;stroke-width:0.91810417" />
      <path
         id="path834-8-5-4"
         d="m 167.05399,149.81047 c 0,0 3.30518,-1.28535 3.02975,1.8362 -0.0918,1.28535 -0.91811,5.78406 -1.56078,10.65001 l -2.20345,14.41424 c 0,0 -0.18362,2.11164 -1.83621,2.47889 -1.65259,0.36723 -4.13147,-1.28536 -4.59052,-1.65259 -0.36724,-0.27544 -6.8858,-4.40691 -9.18106,-6.42674 -0.64267,-0.55086 -1.37716,-1.65259 0.0918,-2.93793 l 9.64011,-9.18104 c 1.10173,-1.10173 2.20345,-3.67242 -2.38707,-0.55087 l -12.85348,8.72199 c 0,0 -1.46896,0.91811 -4.22328,0.0918 l -5.96767,-1.8362 c 0,0 -2.20345,-1.37716 1.56077,-2.75432 9.18105,-4.31509 20.47375,-8.72199 30.48108,-12.85345 z"
         inkscape:connector-curvature="0"
         style="fill:#ffffff;fill-opacity:1;stroke-width:0.91810417" />
      <path
         id="path834-8-5-1"
         d="m 120.0355,149.81047 c 0,0 3.30518,-1.28535 3.02975,1.8362 -0.0918,1.28535 -0.91811,5.78406 -1.56078,10.65001 l -2.20345,14.41424 c 0,0 -0.18362,2.11164 -1.83621,2.47889 -1.65259,0.36723 -4.13147,-1.28536 -4.59052,-1.65259 -0.36724,-0.27544 -6.88579,-4.40691 -9.18105,-6.42674 -0.64267,-0.55086 -1.37716,-1.65259 0.0918,-2.93793 l 9.6401,-9.18104 c 1.10173,-1.10173 2.20345,-3.67242 -2.38707,-0.55087 l -12.85347,8.72199 c 0,0 -1.46896,0.91811 -4.22328,0.0918 l -5.96767,-1.8362 c 0,0 -2.20345,-1.37716 1.56077,-2.75432 9.18105,-4.31509 20.47374,-8.72199 30.48107,-12.85345 z"
         inkscape:connector-curvature="0"
         style="fill:#ffffff;fill-opacity:1;stroke-width:0.91810417" />
      <path
         id="path834-8-5-24"
         d="m -21.019942,149.81047 c 0,0 3.30518,-1.28535 3.02975,1.8362 -0.0918,1.28535 -0.91811,5.78406 -1.56078,10.65001 l -2.20345,14.41424 c 0,0 -0.18362,2.11164 -1.83621,2.47889 -1.65259,0.36723 -4.13147,-1.28536 -4.59052,-1.65259 -0.36724,-0.27544 -6.88579,-4.40691 -9.18105,-6.42674 -0.64267,-0.55086 -1.37716,-1.65259 0.0918,-2.93793 l 9.6401,-9.18104 c 1.10173,-1.10173 2.20345,-3.67242 -2.38707,-0.55087 l -12.85347,8.72199 c 0,0 -1.46896,0.91811 -4.223278,0.0918 l -5.96767,-1.8362 c 0,0 -2.20345,-1.37716 1.56077,-2.75432 9.181048,-4.31509 20.473738,-8.72199 30.481068,-12.85345 z"
         inkscape:connector-curvature="0"
         style="fill:#ffffff;fill-opacity:1;stroke-width:0.91810417" />
      <path
         id="path834-8-5-6"
         d="m -68.038418,149.81047 c 0,0 3.305176,-1.28535 3.029746,1.8362 -0.0918,1.28535 -0.91811,5.78406 -1.56078,10.65001 l -2.203446,14.41424 c 0,0 -0.18362,2.11164 -1.83621,2.47889 -1.65259,0.36723 -4.13147,-1.28536 -4.59052,-1.65259 -0.36724,-0.27544 -6.885789,-4.40691 -9.181049,-6.42674 -0.64267,-0.55086 -1.37716,-1.65259 0.0918,-2.93793 l 9.640099,-9.18104 c 1.10173,-1.10173 2.20345,-3.67242 -2.387069,-0.55087 l -12.85347,8.72199 c 0,0 -1.46896,0.91811 -4.22328,0.0918 l -5.967673,-1.8362 c 0,0 -2.20345,-1.37716 1.560773,-2.75432 9.18105,-4.31509 20.47374,-8.72199 30.481069,-12.85345 z"
         inkscape:connector-curvature="0"
         style="fill:#ffffff;fill-opacity:1;stroke-width:0.91810417" />
      <path
         id="path834-8-5-15"
         d="m -162.07538,149.81047 c 0,0 3.30518,-1.28535 3.02975,1.8362 -0.0918,1.28535 -0.91811,5.78406 -1.56078,10.65001 l -2.20345,14.41424 c 0,0 -0.18362,2.11164 -1.83621,2.47889 -1.65259,0.36723 -4.13147,-1.28536 -4.59052,-1.65259 -0.36724,-0.27544 -6.88579,-4.40691 -9.18105,-6.42674 -0.64267,-0.55086 -1.37716,-1.65259 0.0918,-2.93793 l 9.6401,-9.18104 c 1.10173,-1.10173 2.20345,-3.67242 -2.38707,-0.55087 l -12.85347,8.72199 c 0,0 -1.46896,0.91811 -4.22328,0.0918 l -5.96767,-1.8362 c 0,0 -2.20345,-1.37716 1.56077,-2.75432 9.18105,-4.31509 20.47374,-8.72199 30.48107,-12.85345 z"
         inkscape:connector-curvature="0"
         style="fill:#ffffff;fill-opacity:1;stroke-width:0.91810417" />
      <path
         id="path834-8-5-9"
         d="m -209.09386,149.81047 c 0,0 3.30518,-1.28535 3.02975,1.8362 -0.0918,1.28535 -0.91811,5.78406 -1.56078,10.65001 l -2.20345,14.41424 c 0,0 -0.18362,2.11164 -1.83621,2.47889 -1.65259,0.36723 -4.13147,-1.28536 -4.59052,-1.65259 -0.36724,-0.27544 -6.88579,-4.40691 -9.18105,-6.42674 -0.64267,-0.55086 -1.37716,-1.65259 0.0918,-2.93793 l 9.6401,-9.18104 c 1.10173,-1.10173 2.20345,-3.67242 -2.38707,-0.55087 l -12.85347,8.72199 c 0,0 -1.46896,0.91811 -4.22328,0.0918 l -5.96767,-1.8362 c 0,0 -2.20345,-1.37716 1.56077,-2.75432 9.18105,-4.31509 20.47374,-8.72199 30.48107,-12.85345 z"
         inkscape:connector-curvature="0"
         style="fill:#ffffff;fill-opacity:1;stroke-width:0.91810417" />
      <path
         id="path834-8-5-17"
         d="m -256.11234,149.81047 c 0,0 3.30518,-1.28535 3.02975,1.8362 -0.0918,1.28535 -0.91811,5.78406 -1.56078,10.65001 l -2.20345,14.41424 c 0,0 -0.18362,2.11164 -1.83621,2.47889 -1.65259,0.36723 -4.13147,-1.28536 -4.59052,-1.65259 -0.36724,-0.27544 -6.88579,-4.40691 -9.18104,-6.42674 -0.64267,-0.55086 -1.37716,-1.65259 0.0918,-2.93793 l 9.64009,-9.18104 c 1.10173,-1.10173 2.20345,-3.67242 -2.38707,-0.55087 l -12.85346,8.72199 c 0,0 -1.46896,0.91811 -4.22328,0.0918 l -5.96767,-1.8362 c 0,0 -2.20345,-1.37716 1.56077,-2.75432 9.18105,-4.31509 20.47373,-8.72199 30.48106,-12.85345 z"
         inkscape:connector-curvature="0"
         style="fill:#ffffff;fill-opacity:1;stroke-width:0.91810417" />
    </g>
    <g
       id="g1481"
       transform="translate(13.80946)"
       style="fill:#ffffff;fill-opacity:0.6">
      <path
         id="path834-9"
         d="m 293.38165,72.394133 c 0,0 1.81906,-1.103857 1.98154,0.769316 0.0797,0.769062 0.0601,3.51337 0.18737,6.455544 l 0.19982,8.746727 c 0,0 0.11151,1.266866 -0.82672,1.656045 -0.93822,0.389183 -2.57514,-0.32904 -2.88465,-0.498209 -0.24569,-0.124485 -4.52785,-1.886546 -6.09452,-2.840893 -0.43714,-0.258536 -0.98593,-0.833005 -0.25184,-1.745546 l 4.73962,-6.429325 c 0.5362,-0.765784 0.91935,-2.399552 -1.46788,-0.07679 l -6.68618,6.492879 c 0,0 -0.77233,0.695545 -2.4859,0.494261 l -3.71753,-0.463216 c 0,0 -1.44546,-0.584168 0.63528,-1.790102 4.97536,-3.506284 11.18887,-7.286824 16.6716,-10.770694 z"
         inkscape:connector-curvature="0"
         style="fill:#ffffff;fill-opacity:0.6;stroke-width:0.55086249" />
      <path
         id="path834-8-9"
         d="m 246.36317,72.394133 c 0,0 1.81906,-1.103857 1.98154,0.769316 0.0797,0.769062 0.0601,3.51337 0.18737,6.455544 l 0.19982,8.746727 c 0,0 0.11151,1.266866 -0.82672,1.656045 -0.93822,0.389183 -2.57514,-0.32904 -2.88465,-0.498209 -0.24569,-0.124485 -4.52785,-1.886546 -6.09452,-2.840893 -0.43714,-0.258536 -0.98593,-0.833005 -0.25184,-1.745546 l 4.73962,-6.429325 c 0.5362,-0.765784 0.91935,-2.399552 -1.46788,-0.07679 l -6.68618,6.492879 c 0,0 -0.77233,0.695545 -2.4859,0.494261 l -3.71753,-0.463216 c 0,0 -1.44546,-0.584168 0.63528,-1.790102 4.97536,-3.506284 11.18887,-7.286824 16.6716,-10.770694 z"
         inkscape:connector-curvature="0"
         style="fill:#ffffff;fill-opacity:0.6;stroke-width:0.55086249" />
      <path
         id="path834-8-5-41"
         d="m -129.78467,72.394134 c 0,0 1.81905,-1.103856 1.98154,0.769316 0.0797,0.769061 0.0601,3.51337 0.18737,6.455543 l 0.19982,8.746729 c 0,0 0.11151,1.266866 -0.82672,1.656051 -0.93822,0.389175 -2.57514,-0.329046 -2.88465,-0.498209 -0.24569,-0.124492 -4.52785,-1.886553 -6.09453,-2.840898 -0.43714,-0.258536 -0.98593,-0.833005 -0.25184,-1.745546 l 4.73962,-6.429327 c 0.53621,-0.765784 0.91936,-2.399552 -1.46787,-0.0768 l -6.68618,6.492879 c 0,0 -0.77234,0.695547 -2.48591,0.494262 l -3.71752,-0.463218 c 0,0 -1.44547,-0.584167 0.63527,-1.7901 4.97535,-3.506284 11.18888,-7.286826 16.67161,-10.770695 z"
         inkscape:connector-curvature="0"
         style="fill:#ffffff;fill-opacity:0.6;stroke-width:0.55086249" />
      <path
         id="path834-8-5-7-2"
         d="m 11.270761,72.394132 c 0,0 1.819061,-1.103857 1.981545,0.769316 0.07968,0.769058 0.06014,3.513369 0.187372,6.455543 l 0.199819,8.746729 c 0,0 0.111511,1.266866 -0.826715,1.65605 C 11.874553,90.410945 10.237639,89.692724 9.9281322,89.523562 9.6824379,89.399071 5.4002714,87.637009 3.8335937,86.682663 3.3964562,86.424128 2.8476693,85.849658 3.5817371,84.937121 L 8.3213637,78.507794 C 8.857571,77.74201 9.2407231,76.108242 6.8534862,78.430999 l -6.68618565,6.49288 c 0,0 -0.77232904,0.695546 -2.48590675,0.494262 l -3.7175163,-0.463218 c 0,0 -1.4454696,-0.584167 0.6352654,-1.7901 4.97535705,-3.506284 11.1888862,-7.286827 16.6716121,-10.770696 z"
         inkscape:connector-curvature="0"
         style="fill:#ffffff;fill-opacity:0.6;stroke-width:0.55086249" />
      <path
         id="path834-8-5-2-9"
         d="m 58.289241,72.394132 c 0,0 1.819061,-1.103857 1.981545,0.769316 0.07968,0.769058 0.06014,3.513369 0.187372,6.455544 l 0.199819,8.746728 c 0,0 0.111511,1.266867 -0.826715,1.656051 -0.938229,0.389175 -2.575143,-0.329047 -2.88465,-0.498209 -0.245694,-0.124491 -4.527859,-1.886553 -6.094536,-2.840899 -0.437138,-0.258535 -0.985925,-0.833005 -0.251857,-1.745542 l 4.739625,-6.429327 c 0.536207,-0.765784 0.919359,-2.399552 -1.467878,-0.0768 l -6.686183,6.492879 c 0,0 -0.772329,0.695547 -2.485907,0.494263 L 40.98236,84.954923 c 0,0 -1.44547,-0.584167 0.635265,-1.7901 4.975357,-3.506284 11.188884,-7.286827 16.67161,-10.770696 z"
         inkscape:connector-curvature="0"
         style="fill:#ffffff;fill-opacity:0.6;stroke-width:0.55086249" />
      <path
         id="path834-8-5-5-4"
         d="m 199.34468,72.394134 c 0,0 1.81906,-1.103857 1.98154,0.769316 0.0797,0.769061 0.0601,3.513368 0.18738,6.455542 l 0.19982,8.746728 c 0,0 0.1115,1.266868 -0.82672,1.656052 -0.93822,0.389174 -2.57514,-0.329047 -2.88465,-0.49821 -0.2457,-0.12449 -4.52786,-1.886551 -6.09454,-2.840896 -0.43714,-0.258536 -0.98592,-0.833007 -0.25184,-1.745546 l 4.73963,-6.429329 c 0.53621,-0.765784 0.91936,-2.399552 -1.46787,-0.0768 l -6.68619,6.492881 c 0,0 -0.77234,0.695547 -2.48591,0.494262 l -3.71752,-0.463218 c 0,0 -1.44547,-0.584167 0.63527,-1.7901 4.97535,-3.506284 11.18889,-7.286827 16.67162,-10.770697 z"
         inkscape:connector-curvature="0"
         style="fill:#ffffff;fill-opacity:0.6;stroke-width:0.55086249" />
      <path
         id="path834-8-5-4-2"
         d="m 152.32621,72.394134 c 0,0 1.81906,-1.103857 1.98154,0.769316 0.0797,0.769061 0.0601,3.513368 0.18738,6.455542 l 0.19982,8.746728 c 0,0 0.1115,1.266868 -0.82672,1.656052 -0.93822,0.389174 -2.57514,-0.329047 -2.88465,-0.49821 -0.2457,-0.12449 -4.52786,-1.886551 -6.09454,-2.840896 -0.43714,-0.258536 -0.98592,-0.833007 -0.25184,-1.745546 l 4.73963,-6.429329 c 0.53621,-0.765784 0.91936,-2.399552 -1.46787,-0.0768 l -6.68619,6.492881 c 0,0 -0.77234,0.695547 -2.48591,0.494262 l -3.71752,-0.463218 c 0,0 -1.44547,-0.584167 0.63527,-1.7901 4.97535,-3.506284 11.18889,-7.286827 16.67162,-10.770697 z"
         inkscape:connector-curvature="0"
         style="fill:#ffffff;fill-opacity:0.6;stroke-width:0.55086249" />
      <path
         id="path834-8-5-1-3"
         d="m 105.30773,72.394133 c 0,0 1.81905,-1.103855 1.98154,0.769316 0.0797,0.769062 0.0601,3.51337 0.18737,6.455544 l 0.19982,8.746728 c 0,0 0.11151,1.266867 -0.82672,1.656052 -0.93822,0.389174 -2.57514,-0.329047 -2.88465,-0.49821 -0.24569,-0.124491 -4.527854,-1.886552 -6.094536,-2.840897 -0.437136,-0.258536 -0.985928,-0.833005 -0.251837,-1.745546 l 4.739623,-6.429328 c 0.53621,-0.765784 0.91936,-2.399552 -1.46787,-0.07679 l -6.686186,6.49288 c 0,0 -0.772333,0.695547 -2.48591,0.494262 l -3.717517,-0.463217 c 0,0 -1.445469,-0.584168 0.635266,-1.7901 C 93.611482,79.658542 99.825008,75.878 105.30774,72.39413 Z"
         inkscape:connector-curvature="0"
         style="fill:#ffffff;fill-opacity:0.6;stroke-width:0.55086249" />
      <path
         id="path834-8-5-24-4"
         d="m -35.747721,72.394132 c 0,0 1.81906,-1.103857 1.981544,0.769316 0.07968,0.769058 0.06014,3.513369 0.187372,6.455544 l 0.199819,8.746728 c 0,0 0.111511,1.266867 -0.826715,1.656051 -0.938229,0.389175 -2.575143,-0.329047 -2.88465,-0.498209 -0.245694,-0.124491 -4.527859,-1.886553 -6.094536,-2.840899 -0.437138,-0.258535 -0.985925,-0.833005 -0.251857,-1.745542 l 4.739625,-6.429327 c 0.536207,-0.765783 0.919359,-2.399552 -1.467878,-0.07679 l -6.686183,6.492879 c 0,0 -0.772329,0.695546 -2.485906,0.494261 l -3.717516,-0.463217 c 0,0 -1.44547,-0.584168 0.635265,-1.7901 4.975356,-3.506284 11.188883,-7.286827 16.671609,-10.770696 z"
         inkscape:connector-curvature="0"
         style="fill:#ffffff;fill-opacity:0.6;stroke-width:0.55086249" />
      <path
         id="path834-8-5-6-7"
         d="m -82.7662,72.394132 c 0,0 1.819059,-1.103857 1.981543,0.769316 0.07968,0.769058 0.06014,3.513369 0.187372,6.455543 l 0.199821,8.746728 c 0,0 0.111511,1.266867 -0.826716,1.656051 -0.938228,0.389175 -2.575142,-0.329046 -2.884649,-0.498209 -0.245694,-0.124491 -4.527858,-1.886552 -6.094535,-2.840898 -0.437138,-0.258536 -0.985925,-0.833006 -0.251857,-1.745543 l 4.739624,-6.429327 c 0.536207,-0.765783 0.919359,-2.399551 -1.467877,-0.07679 l -6.686183,6.492879 c 0,0 -0.772329,0.695546 -2.485907,0.494262 l -3.717526,-0.463217 c 0,0 -1.44546,-0.584167 0.635275,-1.790101 4.975357,-3.506284 11.188884,-7.286826 16.671609,-10.770695 z"
         inkscape:connector-curvature="0"
         style="fill:#ffffff;fill-opacity:0.6;stroke-width:0.55086249" />
      <path
         id="path834-8-5-15-0"
         d="m -176.80315,72.394134 c 0,0 1.81905,-1.103856 1.98154,0.769316 0.0797,0.769061 0.0601,3.51337 0.18737,6.455543 l 0.19982,8.746729 c 0,0 0.11151,1.266866 -0.82672,1.656051 -0.93822,0.389175 -2.57514,-0.329046 -2.88465,-0.498209 -0.24569,-0.124492 -4.52785,-1.886553 -6.09453,-2.840898 -0.43714,-0.258536 -0.98593,-0.833005 -0.25184,-1.745546 l 4.73962,-6.429327 c 0.53621,-0.765784 0.91936,-2.399552 -1.46787,-0.0768 l -6.68618,6.492879 c 0,0 -0.77234,0.695547 -2.48591,0.494262 l -3.71752,-0.463218 c 0,0 -1.44547,-0.584167 0.63527,-1.7901 4.97535,-3.506284 11.18888,-7.286826 16.67161,-10.770695 z"
         inkscape:connector-curvature="0"
         style="fill:#ffffff;fill-opacity:0.6;stroke-width:0.55086249" />
    </g>
    <g
       id="g1495"
       transform="translate(13.655711)"
       style="fill:#ffffff;fill-opacity:0.8">
      <path
         id="path834-7"
         d="m 293.36506,107.84953 c 0,0 2.54446,-1.25481 2.54261,1.25213 0.0165,1.03076 -0.32841,4.67364 -0.5013,8.5964 l -0.75103,11.64115 c 0,0 8.9e-4,1.69569 -1.29054,2.10359 -1.29143,0.4079 -3.38222,-0.7363 -3.77367,-0.99697 -0.31188,-0.19391 -5.79493,-3.032 -7.76498,-4.48168 -0.55059,-0.39419 -1.21277,-1.22102 -0.13173,-2.34779 l 7.04258,-7.98904 c 0.80122,-0.95485 1.5,-3.08039 -1.94079,-0.27258 l -9.6355,7.84724 c 0,0 -1.10669,0.83412 -3.35938,0.36759 l -4.88399,-1.04728 c 0,0 -1.85208,-0.94389 1.05181,-2.30389 7.01603,-4.07908 15.70853,-8.37856 23.39586,-12.36891 z"
         inkscape:connector-curvature="0"
         style="fill:#ffffff;fill-opacity:0.8;stroke-width:0.73448336" />
      <path
         id="path834-8-6"
         d="m 246.34658,107.84953 c 0,0 2.54446,-1.25481 2.54261,1.25213 0.0165,1.03076 -0.32841,4.67364 -0.5013,8.5964 l -0.75103,11.64115 c 0,0 8.9e-4,1.69569 -1.29054,2.10359 -1.29143,0.4079 -3.38222,-0.7363 -3.77367,-0.99697 -0.31188,-0.19391 -5.79493,-3.032 -7.76498,-4.48168 -0.55059,-0.39419 -1.21277,-1.22102 -0.13173,-2.34779 l 7.04258,-7.98904 c 0.80122,-0.95485 1.5,-3.08039 -1.94079,-0.27258 l -9.6355,7.84724 c 0,0 -1.10669,0.83412 -3.35938,0.36759 l -4.88399,-1.04728 c 0,0 -1.85208,-0.94389 1.05181,-2.30389 7.01603,-4.07908 15.70853,-8.37856 23.39586,-12.36891 z"
         inkscape:connector-curvature="0"
         style="fill:#ffffff;fill-opacity:0.8;stroke-width:0.73448336" />
      <path
         id="path834-8-5-0"
         d="m -129.80126,107.84953 c 0,0 2.54446,-1.25481 2.54261,1.25213 0.0165,1.03076 -0.3284,4.67365 -0.50131,8.59641 l -0.75103,11.64114 c 0,0 9e-4,1.69569 -1.29053,2.1036 -1.29144,0.40789 -3.38222,-0.73631 -3.77367,-0.99697 -0.31188,-0.19391 -5.79494,-3.03201 -7.76499,-4.48168 -0.55059,-0.3942 -1.21277,-1.22103 -0.13173,-2.3478 l 7.04259,-7.98904 c 0.80121,-0.95484 1.5,-3.08039 -1.9408,-0.27258 l -9.6355,7.84725 c 0,0 -1.10669,0.83411 -3.35938,0.36759 l -4.88399,-1.04728 c 0,0 -1.85208,-0.9439 1.05181,-2.3039 7.01603,-4.07908 15.70854,-8.37856 23.39587,-12.36891 z"
         inkscape:connector-curvature="0"
         style="fill:#ffffff;fill-opacity:0.8;stroke-width:0.73448336" />
      <path
         id="path834-8-5-7-5"
         d="m 11.254182,107.84954 c 0,0 2.544461,-1.25482 2.542605,1.25212 0.01646,1.03077 -0.328402,4.67366 -0.501305,8.59641 l -0.751025,11.64115 c 0,0 8.96e-4,1.69568 -1.290539,2.10359 -1.2914366,0.40789 -3.3822202,-0.73631 -3.7736674,-0.99697 -0.3118788,-0.1939 -5.7949432,-3.032 -7.76499591,-4.48168 -0.55058822,-0.3942 -1.21276249,-1.22103 -0.13168596,-2.34781 l 7.04259307,-7.98903 c 0.8012127,-0.95484 1.4999938,-3.08039 -1.9407987,-0.27258 l -9.6355098,7.84725 c 0,0 -1.106682,0.83411 -3.3593702,0.36758 l -4.8839971,-1.04727 c 0,0 -1.852074,-0.94391 1.051821,-2.3039 7.0160223,-4.07908 15.7085281,-8.37856 23.395862,-12.36891 z"
         inkscape:connector-curvature="0"
         style="fill:#ffffff;fill-opacity:0.8;stroke-width:0.73448336" />
      <path
         id="path834-8-5-2-3"
         d="m 58.272661,107.84954 c 0,0 2.544461,-1.25482 2.542605,1.25212 0.01646,1.03077 -0.328402,4.67366 -0.501305,8.59641 l -0.751025,11.64115 c 0,0 8.96e-4,1.69568 -1.290539,2.10359 -1.291437,0.40789 -3.38222,-0.73631 -3.773667,-0.99697 -0.311879,-0.1939 -5.794941,-3.032 -7.764993,-4.48168 -0.550588,-0.3942 -1.212762,-1.22103 -0.131686,-2.34781 l 7.042589,-7.98903 c 0.801213,-0.95484 1.499994,-3.08039 -1.940798,-0.27258 l -9.635509,7.84725 c 0,0 -1.106682,0.8341 -3.35937,0.36758 l -4.883998,-1.04727 c 0,0 -1.852074,-0.94391 1.051821,-2.3039 7.016023,-4.07908 15.708528,-8.37856 23.395862,-12.36891 z"
         inkscape:connector-curvature="0"
         style="fill:#ffffff;fill-opacity:0.8;stroke-width:0.73448336" />
      <path
         id="path834-8-5-5-1"
         d="m 199.3281,107.84953 c 0,0 2.54446,-1.25481 2.54261,1.25213 0.0165,1.03076 -0.3284,4.67365 -0.50131,8.59641 l -0.75103,11.64114 c 0,0 9e-4,1.69569 -1.29053,2.1036 -1.29144,0.40789 -3.38222,-0.73632 -3.77367,-0.99697 -0.31188,-0.19391 -5.79495,-3.032 -7.765,-4.48168 -0.55058,-0.3942 -1.21277,-1.22103 -0.13173,-2.3478 l 7.0426,-7.98904 c 0.80121,-0.95484 1.5,-3.08039 -1.9408,-0.27258 l -9.63551,7.84725 c 0,0 -1.10669,0.83411 -3.35937,0.36759 l -4.884,-1.04728 c 0,0 -1.85208,-0.9439 1.05182,-2.3039 7.01603,-4.07908 15.70854,-8.37856 23.39587,-12.36891 z"
         inkscape:connector-curvature="0"
         style="fill:#ffffff;fill-opacity:0.8;stroke-width:0.73448336" />
      <path
         id="path834-8-5-4-5"
         d="m 152.30963,107.84953 c 0,0 2.54446,-1.25481 2.54261,1.25213 0.0165,1.03076 -0.3284,4.67365 -0.50131,8.59641 l -0.75103,11.64114 c 0,0 9e-4,1.69569 -1.29053,2.1036 -1.29144,0.40789 -3.38222,-0.73632 -3.77367,-0.99697 -0.31188,-0.19391 -5.79495,-3.032 -7.765,-4.48168 -0.55058,-0.3942 -1.21277,-1.22103 -0.13173,-2.3478 l 7.0426,-7.98904 c 0.80121,-0.95484 1.5,-3.08039 -1.9408,-0.27258 l -9.63551,7.84725 c 0,0 -1.10669,0.83411 -3.35937,0.36759 l -4.884,-1.04728 c 0,0 -1.85208,-0.9439 1.05182,-2.3039 7.01603,-4.07908 15.70854,-8.37856 23.39587,-12.36891 z"
         inkscape:connector-curvature="0"
         style="fill:#ffffff;fill-opacity:0.8;stroke-width:0.73448336" />
      <path
         id="path834-8-5-1-9"
         d="m 105.29114,107.84953 c 0,0 2.54446,-1.25481 2.54261,1.25213 0.0165,1.03076 -0.3284,4.67365 -0.50131,8.59641 l -0.75103,11.64114 c 0,0 9e-4,1.69569 -1.29053,2.1036 -1.29144,0.40789 -3.38222,-0.73631 -3.77367,-0.99697 -0.31188,-0.19391 -5.794941,-3.03201 -7.764995,-4.48168 -0.550592,-0.3942 -1.212764,-1.22103 -0.131726,-2.3478 l 7.042591,-7.98904 c 0.80121,-0.95484 1.5,-3.08039 -1.940804,-0.27258 l -9.635505,7.84725 c 0,0 -1.106682,0.83411 -3.35937,0.36759 l -4.883998,-1.04728 c 0,0 -1.852074,-0.9439 1.051821,-2.3039 7.016019,-4.07908 15.708532,-8.37856 23.395866,-12.36891 z"
         inkscape:connector-curvature="0"
         style="fill:#ffffff;fill-opacity:0.8;stroke-width:0.73448336" />
      <path
         id="path834-8-5-24-7"
         d="m -35.764303,107.84954 c 0,0 2.544461,-1.25482 2.542605,1.25212 0.01646,1.03077 -0.328402,4.67366 -0.501305,8.59641 l -0.751025,11.64115 c 0,0 8.96e-4,1.69568 -1.290539,2.10359 -1.291437,0.40789 -3.38222,-0.73631 -3.773667,-0.99697 -0.311879,-0.1939 -5.794941,-3.032 -7.764993,-4.48168 -0.550588,-0.3942 -1.212762,-1.22103 -0.131686,-2.34781 l 7.042589,-7.98903 c 0.801213,-0.95484 1.499994,-3.08039 -1.940798,-0.27258 l -9.635509,7.84725 c 0,0 -1.106682,0.83411 -3.359368,0.36758 l -4.883998,-1.04727 c 0,0 -1.852074,-0.94391 1.051821,-2.3039 7.016021,-4.07908 15.708526,-8.37856 23.39586,-12.36891 z"
         inkscape:connector-curvature="0"
         style="fill:#ffffff;fill-opacity:0.8;stroke-width:0.73448336" />
      <path
         id="path834-8-5-6-3"
         d="m -82.782779,107.84954 c 0,0 2.544457,-1.25482 2.542601,1.25212 0.01646,1.03077 -0.328402,4.67366 -0.501305,8.59641 l -0.751021,11.64115 c 0,0 8.96e-4,1.69568 -1.290539,2.10359 -1.291437,0.40789 -3.38222,-0.73631 -3.773667,-0.99697 -0.311879,-0.1939 -5.794941,-3.032 -7.764993,-4.48168 -0.550588,-0.3942 -1.212762,-1.22103 -0.131686,-2.34781 l 7.042589,-7.98903 c 0.801213,-0.95484 1.499994,-3.08039 -1.940798,-0.27258 l -9.635509,7.84725 c 0,0 -1.106683,0.8341 -3.359373,0.36758 l -4.88399,-1.04727 c 0,0 -1.85208,-0.94391 1.05181,-2.3039 7.016029,-4.07908 15.708534,-8.37856 23.395868,-12.36891 z"
         inkscape:connector-curvature="0"
         style="fill:#ffffff;fill-opacity:0.8;stroke-width:0.73448336" />
      <path
         id="path834-8-5-15-9"
         d="m -176.81974,107.84953 c 0,0 2.54446,-1.25481 2.54261,1.25213 0.0165,1.03076 -0.3284,4.67365 -0.50131,8.59641 l -0.75103,11.64114 c 0,0 9e-4,1.69569 -1.29053,2.1036 -1.29144,0.40789 -3.38222,-0.73631 -3.77367,-0.99697 -0.31188,-0.19391 -5.79494,-3.03201 -7.76499,-4.48168 -0.55059,-0.3942 -1.21277,-1.22103 -0.13173,-2.3478 l 7.04259,-7.98904 c 0.80121,-0.95484 1.5,-3.08039 -1.9408,-0.27258 l -9.6355,7.84725 c 0,0 -1.10669,0.83411 -3.35938,0.36759 l -4.88399,-1.04728 c 0,0 -1.85208,-0.9439 1.05181,-2.3039 7.01603,-4.07908 15.70854,-8.37856 23.39587,-12.36891 z"
         inkscape:connector-curvature="0"
         style="fill:#ffffff;fill-opacity:0.8;stroke-width:0.73448336" />
      <path
         id="path834-8-5-9-0"
         d="m -223.83822,107.84953 c 0,0 2.54446,-1.25481 2.54261,1.25213 0.0165,1.03076 -0.3284,4.67365 -0.50131,8.59641 l -0.75103,11.64114 c 0,0 9e-4,1.69569 -1.29053,2.1036 -1.29144,0.40789 -3.38222,-0.73631 -3.77367,-0.99697 -0.31188,-0.19391 -5.79494,-3.03201 -7.76499,-4.48168 -0.55059,-0.3942 -1.21277,-1.22103 -0.13173,-2.3478 l 7.04259,-7.98904 c 0.80121,-0.95484 1.5,-3.08039 -1.9408,-0.27258 l -9.6355,7.84725 c 0,0 -1.10669,0.83411 -3.35938,0.36759 l -4.88399,-1.04728 c 0,0 -1.85208,-0.9439 1.05181,-2.3039 7.01603,-4.07908 15.70854,-8.37856 23.39587,-12.36891 z"
         inkscape:connector-curvature="0"
         style="fill:#ffffff;fill-opacity:0.8;stroke-width:0.73448336" />
    </g>
    <g
       id="g1448"
       transform="translate(13.113124)"
       style="fill:#ffffff;fill-opacity:0.4">
      <path
         id="path834-1"
         d="m 293.93361,43.375394 c 0,0 1.14395,-0.838798 1.3607,0.395791 0.0976,0.506119 0.24407,2.32984 0.49953,4.276431 l 0.64093,5.797352 c 0,0 0.14771,0.834873 -0.45283,1.147866 -0.60049,0.312978 -1.72935,-0.0689 -1.94473,-0.163266 -0.1704,-0.0684 -3.1167,-0.989827 -4.21262,-1.532608 -0.30534,-0.146301 -0.70319,-0.495936 -0.26871,-1.144627 l 2.77415,-4.545296 c 0.31162,-0.539737 0.47115,-1.647032 -0.97932,0.03429 l -4.06323,4.700608 c 0,0 -0.47251,0.506807 -1.62225,0.472694 l -2.49583,-0.09163 c 0,0 -0.99392,-0.303976 0.31789,-1.225771 3.10055,-2.617715 7.00747,-5.489514 10.44629,-8.121822 z"
         inkscape:connector-curvature="0"
         style="fill:#ffffff;fill-opacity:0.4;stroke-width:0.36724168" />
      <path
         id="path834-8-3"
         d="m 246.91513,43.375394 c 0,0 1.14395,-0.838798 1.3607,0.395791 0.0976,0.506119 0.24407,2.32984 0.49953,4.276431 l 0.64093,5.797352 c 0,0 0.14771,0.834873 -0.45283,1.147866 -0.60049,0.312978 -1.72935,-0.0689 -1.94473,-0.163266 -0.1704,-0.0684 -3.1167,-0.989827 -4.21262,-1.532608 -0.30534,-0.146301 -0.70319,-0.495936 -0.26871,-1.144627 l 2.77415,-4.545296 c 0.31162,-0.539737 0.47115,-1.647032 -0.97932,0.03429 l -4.06323,4.700608 c 0,0 -0.47251,0.506807 -1.62225,0.472694 l -2.49583,-0.09163 c 0,0 -0.99392,-0.303976 0.31789,-1.225771 3.10055,-2.617715 7.00747,-5.489514 10.44629,-8.121822 z"
         inkscape:connector-curvature="0"
         style="fill:#ffffff;fill-opacity:0.4;stroke-width:0.36724168" />
      <path
         id="path834-8-5-48"
         d="m -129.23272,43.375397 c 0,0 1.14396,-0.8388 1.3607,0.395791 0.0976,0.50612 0.24408,2.329838 0.49953,4.276431 l 0.64093,5.797353 c 0,0 0.14761,0.834898 -0.45282,1.147867 -0.6005,0.312976 -1.72935,-0.0689 -1.94473,-0.163266 -0.17041,-0.0684 -3.11671,-0.989829 -4.21263,-1.53261 -0.30534,-0.146301 -0.70318,-0.495938 -0.26871,-1.144627 l 2.77416,-4.545298 c 0.31161,-0.539735 0.47115,-1.647032 -0.97933,0.03429 l -4.06323,4.700608 c 0,0 -0.47251,0.506807 -1.62225,0.472694 l -2.49583,-0.09163 c 0,0 -0.99392,-0.303976 0.31789,-1.225771 3.10055,-2.617715 7.00748,-5.489516 10.4463,-8.121824 z"
         inkscape:connector-curvature="0"
         style="fill:#ffffff;fill-opacity:0.4;stroke-width:0.36724168" />
      <path
         id="path834-8-5-7-8"
         d="m 11.822722,43.3754 c 0,0 1.143953,-0.838799 1.360703,0.39579 0.0976,0.506125 0.244079,2.329839 0.499531,4.276432 l 0.640924,5.797352 c 0,0 0.147666,0.834886 -0.452824,1.147868 -0.600493,0.312976 -1.729347,-0.0689 -1.944729,-0.163266 C 11.755921,54.761174 8.8096236,53.839747 7.7136951,53.296967 7.4083572,53.150665 7.0105126,52.801029 7.445007,52.152334 l 2.774159,-4.545298 c 0.311616,-0.539735 0.471151,-1.647032 -0.9793239,0.03429 L 5.176608,52.341931 c 0,0 -0.4725128,0.506809 -1.6222462,0.472695 l -2.4958281,-0.09163 c 0,0 -0.99392179,-0.303976 0.317887,-1.225771 3.1005544,-2.617714 7.0074803,-5.489516 10.4462963,-8.121824 z"
         inkscape:connector-curvature="0"
         style="fill:#ffffff;fill-opacity:0.4;stroke-width:0.36724168" />
      <path
         id="path834-8-5-2-94"
         d="m 58.841202,43.3754 c 0,0 1.143954,-0.838799 1.360703,0.39579 0.0976,0.506125 0.244079,2.329839 0.49953,4.276432 l 0.640924,5.797353 c 0,0 0.147666,0.834885 -0.452824,1.147868 -0.600493,0.312975 -1.729347,-0.0689 -1.944729,-0.163267 -0.170406,-0.0684 -3.116702,-0.989829 -4.21263,-1.532609 -0.305338,-0.146302 -0.703183,-0.495938 -0.268689,-1.144633 l 2.774158,-4.545298 c 0.311616,-0.539735 0.471151,-1.647032 -0.979323,0.03429 l -4.063233,4.700607 c 0,0 -0.472513,0.506809 -1.622246,0.472695 l -2.495828,-0.09163 c 0,0 -0.993922,-0.303976 0.317887,-1.225771 3.100555,-2.617715 7.007479,-5.489515 10.446294,-8.121824 z"
         inkscape:connector-curvature="0"
         style="fill:#ffffff;fill-opacity:0.4;stroke-width:0.36724168" />
      <path
         id="path834-8-5-5-8"
         d="m 199.89664,43.375397 c 0,0 1.14395,-0.838798 1.3607,0.395791 0.0976,0.506119 0.24408,2.329837 0.49953,4.276431 l 0.64093,5.797352 c 0,0 0.14761,0.834899 -0.45282,1.147867 -0.6005,0.312977 -1.72935,-0.0689 -1.94473,-0.163265 -0.17041,-0.0684 -3.11671,-0.989829 -4.21264,-1.532607 -0.30533,-0.146304 -0.70318,-0.495939 -0.26871,-1.144628 l 2.77417,-4.5453 c 0.31161,-0.539735 0.47115,-1.647032 -0.97933,0.03429 l -4.06323,4.700608 c 0,0 -0.47252,0.50681 -1.62225,0.472694 L 189.13243,52.723 c 0,0 -0.99392,-0.303976 0.31789,-1.225771 3.10055,-2.617715 7.00748,-5.489516 10.4463,-8.121824 z"
         inkscape:connector-curvature="0"
         style="fill:#ffffff;fill-opacity:0.4;stroke-width:0.36724168" />
      <path
         id="path834-8-5-4-1"
         d="m 152.87817,43.375397 c 0,0 1.14395,-0.838798 1.3607,0.395791 0.0976,0.506119 0.24408,2.329837 0.49953,4.276431 l 0.64093,5.797352 c 0,0 0.14761,0.834899 -0.45282,1.147867 -0.6005,0.312977 -1.72935,-0.0689 -1.94473,-0.163265 -0.17041,-0.0684 -3.11671,-0.989829 -4.21264,-1.532607 -0.30533,-0.146304 -0.70318,-0.495939 -0.26871,-1.144628 l 2.77417,-4.5453 c 0.31161,-0.539735 0.47115,-1.647032 -0.97933,0.03429 l -4.06323,4.700608 c 0,0 -0.47252,0.50681 -1.62225,0.472694 L 142.11396,52.723 c 0,0 -0.99392,-0.303976 0.31789,-1.225771 3.10055,-2.617715 7.00748,-5.489516 10.4463,-8.121824 z"
         inkscape:connector-curvature="0"
         style="fill:#ffffff;fill-opacity:0.4;stroke-width:0.36724168" />
      <path
         id="path834-8-5-1-4"
         d="m 105.85968,43.375398 c 0,0 1.14396,-0.838801 1.3607,0.39579 0.0976,0.50612 0.24408,2.329838 0.49953,4.276431 l 0.64093,5.797353 c 0,0 0.14771,0.834872 -0.45282,1.147867 -0.6005,0.312976 -1.72935,-0.0689 -1.94473,-0.163266 -0.17041,-0.0684 -3.11671,-0.989829 -4.21263,-1.532609 -0.30534,-0.146302 -0.70318,-0.495939 -0.26871,-1.144628 l 2.77416,-4.545298 c 0.31161,-0.539735 0.47115,-1.647032 -0.97933,0.03429 l -4.063236,4.700609 c 0,0 -0.472509,0.506807 -1.622244,0.472694 l -2.495826,-0.09163 c 0,0 -0.993922,-0.303976 0.317887,-1.22577 3.100552,-2.617715 7.007479,-5.489517 10.446299,-8.121825 z"
         inkscape:connector-curvature="0"
         style="fill:#ffffff;fill-opacity:0.4;stroke-width:0.36724168" />
      <path
         id="path834-8-5-24-79"
         d="m -35.195761,43.3754 c 0,0 1.143954,-0.838799 1.360703,0.39579 0.0976,0.506125 0.244079,2.329839 0.499531,4.276432 l 0.640924,5.797353 c 0,0 0.147666,0.834885 -0.452824,1.147868 -0.600493,0.312975 -1.729347,-0.0689 -1.94473,-0.163266 -0.170405,-0.0684 -3.116702,-0.98983 -4.21263,-1.53261 -0.305337,-0.146302 -0.703183,-0.495937 -0.268689,-1.144632 l 2.774158,-4.545299 c 0.311616,-0.539735 0.471151,-1.647032 -0.979322,0.03429 l -4.063233,4.700607 c 0,0 -0.472513,0.506809 -1.622245,0.472695 l -2.495828,-0.09163 c 0,0 -0.993922,-0.303975 0.317887,-1.22577 3.100553,-2.617715 7.007478,-5.489515 10.446293,-8.121824 z"
         inkscape:connector-curvature="0"
         style="fill:#ffffff;fill-opacity:0.4;stroke-width:0.36724168" />
      <path
         id="path834-8-5-6-1"
         d="m -82.214239,43.375399 c 0,0 1.143952,-0.838798 1.360701,0.395791 0.0976,0.506125 0.244079,2.329839 0.499531,4.276432 l 0.640926,5.797352 c 0,0 0.147666,0.834885 -0.452824,1.147868 -0.600493,0.312976 -1.729347,-0.0689 -1.944729,-0.163266 -0.170406,-0.0684 -3.116702,-0.98983 -4.212631,-1.532609 -0.305337,-0.146302 -0.703182,-0.495938 -0.268688,-1.144633 l 2.774158,-4.545298 c 0.311616,-0.539736 0.471151,-1.647032 -0.979323,0.03429 l -4.063234,4.700607 c 0,0 -0.472513,0.506808 -1.622246,0.472695 l -2.495828,-0.09163 c 0,0 -0.993922,-0.303975 0.317887,-1.22577 3.100555,-2.617715 7.00748,-5.489516 10.446295,-8.121824 z"
         inkscape:connector-curvature="0"
         style="fill:#ffffff;fill-opacity:0.4;stroke-width:0.36724168" />
    </g>
    <g
       id="g1468"
       transform="translate(12.762742)"
       style="fill:#ffffff;fill-opacity:0.2">
      <path
         id="path834-1-0"
         d="m 295.07833,20.717505 c 0,0 0.53325,-0.467652 0.69502,0.137846 0.0706,0.24786 0.22309,1.149853 0.43516,2.108312 l 0.57188,2.859716 c 0,0 0.10996,0.40941 -0.17552,0.59148 -0.28547,0.182065 -0.8644,0.04105 -0.97579,0.0034 -0.0878,-0.02666 -1.59555,-0.357213 -2.16508,-0.579813 -0.15847,-0.05956 -0.37187,-0.216379 -0.18367,-0.558443 l 1.18371,-2.384889 c 0.1317,-0.282422 0.16291,-0.840914 -0.4863,0.05975 l -1.81904,2.518425 c 0,0 -0.21327,0.273031 -0.78744,0.306144 l -1.24715,0.06312 c 0,0 -0.50832,-0.108097 0.10492,-0.624405 1.4303,-1.438992 3.25118,-3.039685 4.84933,-4.500685 z"
         inkscape:connector-curvature="0"
         style="fill:#ffffff;fill-opacity:0.2;stroke-width:0.18362084" />
      <path
         id="path834-8-3-7"
         d="m 248.05985,20.717505 c 0,0 0.53325,-0.467652 0.69502,0.137846 0.0706,0.24786 0.22309,1.149853 0.43516,2.108312 l 0.57188,2.859716 c 0,0 0.10996,0.40941 -0.17552,0.59148 -0.28547,0.182065 -0.8644,0.04105 -0.97579,0.0034 -0.0878,-0.02666 -1.59555,-0.357213 -2.16508,-0.579813 -0.15847,-0.05956 -0.37187,-0.216379 -0.18367,-0.558443 l 1.18371,-2.384889 c 0.1317,-0.282422 0.16291,-0.840914 -0.4863,0.05975 l -1.81904,2.518425 c 0,0 -0.21327,0.273031 -0.78744,0.306144 l -1.24715,0.06312 c 0,0 -0.50832,-0.108097 0.10492,-0.624405 1.4303,-1.438992 3.25118,-3.039685 4.84933,-4.500685 z"
         inkscape:connector-curvature="0"
         style="fill:#ffffff;fill-opacity:0.2;stroke-width:0.18362084" />
      <path
         id="path834-8-5-7-8-1"
         d="m 12.967447,20.717501 c 0,0 0.533248,-0.467654 0.695011,0.137846 0.07067,0.247846 0.223104,1.14985 0.435172,2.108311 l 0.571879,2.859716 c 0,0 0.10994,0.409417 -0.175528,0.591483 -0.285464,0.182064 -0.864386,0.04104 -0.97578,0.0034 -0.08786,-0.02665 -1.595556,-0.357212 -2.165088,-0.579811 -0.158464,-0.05957 -0.371866,-0.216382 -0.183714,-0.55843 l 1.183727,-2.384893 c 0.131695,-0.28242 0.162905,-0.840914 -0.486304,0.05976 l -1.819044,2.518428 c 0,0 -0.2132715,0.273031 -0.7874373,0.306142 l -1.2471586,0.06312 c 0,0 -0.5083164,-0.108097 0.1049223,-0.624406 C 9.5484078,23.779195 11.36929,22.178502 12.967445,20.7175 Z"
         inkscape:connector-curvature="0"
         style="fill:#ffffff;fill-opacity:0.2;stroke-width:0.18362084" />
      <path
         id="path834-8-5-2-94-8"
         d="m 59.985928,20.717502 c 0,0 0.533248,-0.467655 0.695011,0.137845 0.07067,0.247847 0.223104,1.14985 0.435172,2.108311 l 0.571879,2.859716 c 0,0 0.10994,0.409417 -0.175528,0.591483 -0.285464,0.182064 -0.864386,0.04104 -0.975779,0.0034 -0.08786,-0.02665 -1.595556,-0.357213 -2.165088,-0.579812 -0.158464,-0.05957 -0.371866,-0.216382 -0.183714,-0.558429 l 1.183726,-2.384893 c 0.131695,-0.28242 0.162905,-0.840914 -0.486304,0.05976 l -1.819043,2.518428 c 0,0 -0.213272,0.273031 -0.787437,0.306142 l -1.247159,0.06312 c 0,0 -0.508316,-0.108097 0.104922,-0.624406 1.430304,-1.438993 3.251185,-3.039684 4.84934,-4.500687 z"
         inkscape:connector-curvature="0"
         style="fill:#ffffff;fill-opacity:0.2;stroke-width:0.18362084" />
      <path
         id="path834-8-5-5-8-8"
         d="m 201.04136,20.717508 c 0,0 0.53325,-0.467652 0.69501,0.137846 0.0706,0.24786 0.22311,1.149849 0.43517,2.108312 l 0.57188,2.859716 c 0,0 0.10996,0.409411 -0.17552,0.591482 -0.28547,0.182065 -0.86439,0.04104 -0.97578,0.0034 -0.0879,-0.02663 -1.59556,-0.357212 -2.1651,-0.579808 -0.15846,-0.05957 -0.37186,-0.216383 -0.18367,-0.558444 l 1.18373,-2.384896 c 0.13169,-0.282418 0.16291,-0.840914 -0.48631,0.05976 l -1.81904,2.518425 c 0,0 -0.21328,0.273034 -0.78744,0.306144 l -1.24715,0.06312 c 0,0 -0.50832,-0.108097 0.10492,-0.624405 1.4303,-1.438992 3.25118,-3.039685 4.84934,-4.500688 z"
         inkscape:connector-curvature="0"
         style="fill:#ffffff;fill-opacity:0.2;stroke-width:0.18362084" />
      <path
         id="path834-8-5-4-1-4"
         d="m 154.02289,20.717508 c 0,0 0.53325,-0.467652 0.69501,0.137846 0.0706,0.24786 0.22311,1.149849 0.43517,2.108312 l 0.57188,2.859716 c 0,0 0.10996,0.409411 -0.17552,0.591482 -0.28547,0.182065 -0.86439,0.04104 -0.97578,0.0034 -0.0878,-0.02666 -1.59556,-0.357212 -2.1651,-0.579808 -0.15846,-0.05957 -0.37186,-0.216383 -0.18367,-0.558444 l 1.18373,-2.384896 c 0.13169,-0.282418 0.16291,-0.840914 -0.48631,0.05976 l -1.81904,2.518425 c 0,0 -0.21328,0.273034 -0.78744,0.306144 l -1.24715,0.06312 c 0,0 -0.50832,-0.108097 0.10492,-0.624405 1.4303,-1.438992 3.25118,-3.039685 4.84934,-4.500688 z"
         inkscape:connector-curvature="0"
         style="fill:#ffffff;fill-opacity:0.2;stroke-width:0.18362084" />
      <path
         id="path834-8-5-1-4-7"
         d="m 107.0044,20.717509 c 0,0 0.53326,-0.467656 0.69501,0.137845 0.0706,0.24786 0.22311,1.14985 0.43518,2.108309 l 0.57188,2.859716 c 0,0 0.10996,0.409411 -0.17553,0.591486 -0.28546,0.182061 -0.86439,0.04104 -0.97578,0.0034 -0.0878,-0.02666 -1.59556,-0.357212 -2.16509,-0.579811 -0.15846,-0.05957 -0.37186,-0.216383 -0.18367,-0.558444 l 1.18372,-2.384892 c 0.1317,-0.282422 0.16291,-0.840914 -0.4863,0.05975 l -1.81905,2.518429 c 0,0 -0.21327,0.27303 -0.78743,0.30614 l -1.24716,0.06312 c 0,0 -0.50832,-0.108097 0.10493,-0.624408 1.4303,-1.438992 3.25117,-3.039681 4.84933,-4.500685 z"
         inkscape:connector-curvature="0"
         style="fill:#ffffff;fill-opacity:0.2;stroke-width:0.18362084" />
      <path
         id="path834-8-5-24-79-0"
         d="m -34.051036,20.717502 c 0,0 0.533248,-0.467655 0.695011,0.137845 0.07067,0.247847 0.223104,1.149851 0.435172,2.108311 l 0.571879,2.859716 c 0,0 0.10994,0.409418 -0.175528,0.591483 -0.285464,0.182064 -0.864386,0.04104 -0.975779,0.0034 -0.08786,-0.02665 -1.595556,-0.357213 -2.165088,-0.579811 -0.158464,-0.05957 -0.371866,-0.216382 -0.183714,-0.55843 l 1.183726,-2.384893 c 0.131695,-0.28242 0.162905,-0.840914 -0.486304,0.05976 l -1.819043,2.518427 c 0,0 -0.213272,0.273031 -0.787436,0.306142 l -1.247159,0.06312 c 0,0 -0.508316,-0.108096 0.104922,-0.624405 1.430303,-1.438992 3.251184,-3.039684 4.849339,-4.500686 z"
         inkscape:connector-curvature="0"
         style="fill:#ffffff;fill-opacity:0.2;stroke-width:0.18362084" />
      <path
         id="path834-8-5-6-1-0"
         d="m -81.069515,20.717502 c 0,0 0.533248,-0.467655 0.695011,0.137845 0.07067,0.247847 0.223104,1.14985 0.435172,2.108311 l 0.571879,2.859716 c 0,0 0.10994,0.409417 -0.175528,0.591483 -0.285464,0.182064 -0.864386,0.04104 -0.975779,0.0034 -0.08786,-0.02665 -1.595555,-0.357213 -2.165087,-0.579812 -0.158464,-0.05957 -0.371866,-0.216382 -0.183714,-0.55843 l 1.183725,-2.384892 c 0.131695,-0.28242 0.162905,-0.840914 -0.486303,0.05976 l -1.819043,2.518427 c 0,0 -0.213272,0.273031 -0.787437,0.306142 l -1.24716,0.06312 c 0,0 -0.508316,-0.108097 0.104923,-0.624406 1.430304,-1.438993 3.251185,-3.039685 4.849339,-4.500687 z"
         inkscape:connector-curvature="0"
         style="fill:#ffffff;fill-opacity:0.2;stroke-width:0.18362084" />
    </g>
  </g>
</svg>
