<?xml version="1.0" standalone="no"?>
<!DOCTYPE svg PUBLIC "-//W3C//DTD SVG 20010904//EN"
 "http://www.w3.org/TR/2001/REC-SVG-20010904/DTD/svg10.dtd">
<svg version="1.0" xmlns="http://www.w3.org/2000/svg"
 width="1203.000000pt" height="1203.000000pt" viewBox="0 0 1203.000000 1203.000000"
 preserveAspectRatio="xMidYMid meet">
<metadata>
Created by potrace 1.14, written by Peter Selinger 2001-2017
</metadata>
<g transform="translate(0.000000,1203.000000) scale(0.100000,-0.100000)"
fill="#000000" stroke="none">
<path d="M4147 10214 c-1 -1 -69 -5 -152 -8 -82 -4 -166 -9 -185 -11 -99 -10
-149 -16 -166 -19 -10 -2 -44 -7 -74 -11 -30 -4 -62 -9 -70 -10 -160 -30 -202
-38 -242 -50 -27 -8 -48 -12 -48 -10 0 2 -18 -2 -40 -10 -22 -8 -44 -15 -48
-15 -36 -3 -242 -68 -387 -122 -235 -87 -492 -210 -695 -333 -93 -56 -315
-205 -355 -237 -11 -9 -56 -45 -100 -79 -149 -115 -405 -356 -520 -489 -324
-373 -551 -733 -736 -1167 -45 -105 -102 -260 -124 -333 -7 -25 -22 -74 -34
-110 -42 -133 -109 -439 -126 -575 -3 -27 -8 -63 -11 -80 -36 -239 -40 -734
-9 -980 2 -16 7 -52 10 -80 12 -91 16 -119 32 -205 8 -47 17 -96 20 -110 25
-139 116 -449 188 -641 162 -427 420 -869 700 -1196 5 -6 28 -33 50 -60 64
-77 337 -353 349 -353 8 0 11 140 11 497 0 592 4 676 46 868 66 300 215 592
415 813 238 262 573 444 903 489 76 11 2856 10 2906 0 22 -5 72 -15 110 -23
301 -62 633 -272 840 -529 22 -28 43 -52 46 -55 3 -3 29 -41 58 -85 95 -145
198 -372 231 -509 6 -22 13 -50 16 -61 6 -26 32 -152 40 -202 3 -21 8 -283 10
-583 3 -300 5 -565 7 -590 l2 -45 135 135 c134 134 157 158 256 275 40 47 144
179 212 270 68 91 302 478 302 500 0 5 6 16 13 24 15 18 133 276 167 366 12
33 28 74 35 90 32 75 112 339 145 480 28 118 29 122 55 270 2 17 7 39 9 51 2
12 7 43 10 70 4 27 11 85 16 129 33 261 30 732 -5 960 -3 17 -7 48 -10 70 -14
92 -47 283 -57 325 -42 177 -126 462 -157 535 -5 11 -14 36 -21 55 -14 39 -19
51 -81 195 -115 269 -299 584 -485 831 -287 381 -658 731 -1034 976 -134 87
-200 128 -206 128 -3 0 -18 8 -32 19 -44 31 -273 145 -410 205 -281 122 -577
214 -867 270 -44 8 -89 17 -100 20 -32 6 -134 20 -230 31 -33 4 -71 8 -85 10
-42 7 -437 23 -443 19z m238 -1329 c130 -23 192 -38 271 -66 98 -34 275 -121
294 -144 7 -8 17 -15 22 -15 17 0 129 -91 209 -169 192 -190 336 -456 385
-715 2 -12 6 -32 9 -46 23 -117 23 -327 -1 -455 -2 -10 -6 -37 -10 -59 -16
-107 -102 -323 -178 -446 -47 -75 -41 -67 -106 -147 -329 -407 -852 -593
-1370 -487 -578 119 -1042 630 -1098 1209 -20 213 -1 405 60 588 139 422 466
753 883 891 94 32 187 53 276 62 35 3 66 8 67 9 7 6 246 -2 287 -10z"/>
<path d="M9755 9054 c-240 -35 -387 -167 -427 -384 -41 -217 21 -409 169 -522
106 -80 244 -116 403 -104 144 10 196 21 298 63 l62 26 -2 236 -3 236 -197 1
-198 0 0 -83 c0 -72 2 -83 18 -84 9 -1 44 -2 77 -3 l60 -1 1 -93 c2 -92 2 -93
-25 -104 -14 -6 -60 -11 -101 -11 -139 -1 -227 49 -280 159 -19 37 -25 70 -28
140 -7 162 40 261 152 319 51 26 70 30 148 31 99 2 197 -19 281 -62 27 -13 51
-24 53 -24 3 0 3 46 2 102 l-3 102 -50 19 c-116 43 -282 60 -410 41z"/>
<path d="M8334 9041 c-2 -2 -4 -45 -4 -96 l0 -91 153 -1 c83 -1 158 -2 165 -2
9 -1 12 -87 12 -396 l0 -396 127 3 127 3 0 394 1 395 163 0 163 -1 -3 96 -3
96 -448 0 c-246 0 -450 -1 -453 -4z"/>
<path d="M9254 7351 c-2 -2 -4 -224 -4 -493 l0 -488 38 -1 c190 -4 476 3 525
11 113 21 181 64 224 143 25 45 25 208 1 253 -23 43 -71 89 -108 106 -16 7
-30 15 -30 18 0 3 14 11 31 19 47 21 80 80 86 153 13 158 -70 249 -247 274
-60 8 -508 12 -516 5z m454 -182 c64 -22 79 -120 27 -169 -23 -22 -36 -24
-128 -26 l-103 -2 0 104 1 104 86 0 c47 0 100 -5 117 -11z m22 -382 c102 -35
102 -196 -1 -233 -37 -13 -218 -19 -220 -6 -4 22 -5 229 -1 240 5 16 174 16
222 -1z"/>
<path d="M11224 7215 c0 -64 -3 -105 -9 -106 -5 0 -32 -1 -60 -2 l-50 -2 0
-82 -1 -83 58 0 c56 0 58 -1 59 -27 0 -16 1 -109 2 -208 2 -167 4 -184 26
-228 25 -52 62 -81 124 -98 40 -11 294 -16 303 -6 5 5 8 109 5 155 -1 10 -16
13 -53 12 -106 -3 -128 0 -148 20 -19 19 -20 33 -20 200 l0 179 122 3 121 3 0
70 c-1 39 -2 75 -2 82 -1 8 -32 11 -103 11 -57 0 -111 1 -120 1 -16 1 -18 13
-18 106 l0 105 -119 0 -119 0 2 -105z"/>
<path d="M10555 7122 c-112 -12 -220 -71 -273 -150 -45 -66 -63 -132 -64 -227
-4 -262 166 -411 445 -392 176 12 288 90 343 237 25 66 24 239 -2 302 -44 108
-109 170 -217 208 -54 19 -165 30 -232 22z m149 -187 c45 -30 68 -83 73 -170
6 -99 -8 -155 -51 -203 -29 -32 -40 -36 -92 -40 -50 -3 -64 0 -94 20 -55 37
-74 87 -74 198 -1 82 3 101 23 137 42 74 147 102 215 58z"/>
<path d="M9260 5660 c-4 -3 -9 -224 -9 -491 -1 -386 1 -488 11 -491 7 -2 87
-3 178 -2 387 4 483 28 605 149 98 96 134 195 131 359 -5 284 -176 451 -481
472 -107 7 -425 10 -435 4z m502 -220 c107 -50 150 -123 153 -265 4 -129 -44
-217 -145 -268 -60 -30 -72 -32 -164 -32 l-100 0 -1 290 c0 160 1 294 4 299 2
5 49 6 105 4 75 -4 113 -11 148 -28z"/>
<path d="M10655 5432 c-102 -10 -212 -65 -265 -132 -56 -71 -73 -124 -74 -240
-1 -117 3 -141 35 -207 41 -85 125 -149 234 -178 108 -28 300 -15 437 31 l48
16 0 89 c0 49 -2 89 -5 89 -3 0 -28 -11 -55 -24 -72 -35 -174 -58 -256 -59
-109 -1 -177 46 -199 136 l-7 27 276 0 c256 0 276 1 277 18 16 224 -100 394
-291 427 -52 9 -112 12 -155 7z m133 -171 c28 -15 61 -63 68 -100 7 -36 23
-33 -161 -33 -69 0 -129 1 -134 1 -5 1 -4 17 2 37 14 45 69 102 105 106 45 6
98 1 120 -11z"/>
<path d="M11190 5414 c0 -3 15 -42 31 -79 5 -11 22 -56 39 -100 17 -44 35 -89
39 -100 5 -11 37 -92 71 -180 83 -215 101 -258 110 -270 10 -12 248 -11 260 1
4 5 27 59 50 119 33 84 211 538 237 601 5 14 -222 13 -235 -1 -5 -5 -23 -53
-41 -105 -55 -159 -112 -314 -122 -332 -5 -10 -9 -25 -9 -33 0 -43 -23 0 -70
133 -28 81 -68 192 -88 248 l-37 100 -117 0 c-65 0 -118 -1 -118 -2z"/>
<path d="M9334 4011 c-2 -2 -4 -46 -4 -98 l0 -94 118 3 117 3 0 94 0 94 -113
1 c-63 1 -116 -1 -118 -3z"/>
<path d="M8479 3965 c0 -5 -2 -225 -2 -488 -1 -310 2 -481 8 -486 6 -4 163 -7
350 -7 l340 1 1 98 2 98 -87 -1 c-47 -1 -148 -1 -223 -1 l-138 1 -2 396 -3
397 -123 1 c-75 1 -122 -3 -123 -9z"/>
<path d="M10624 3931 c-2 -2 -4 -50 -4 -106 l0 -101 -57 1 -58 0 -2 -82 -1
-83 26 -1 c15 -1 42 -1 60 -1 l32 2 0 -178 c1 -249 10 -295 70 -346 45 -38 99
-48 253 -50 l137 -2 0 85 0 86 -90 1 c-133 1 -132 0 -132 200 0 88 0 168 1
180 1 20 6 21 121 20 l121 -1 -3 85 -3 85 -117 0 c-111 0 -118 1 -119 20 0 11
-2 58 -2 105 l-2 85 -113 0 c-62 0 -115 -1 -118 -4z"/>
<path d="M9917 3725 c-111 -31 -165 -100 -166 -213 -2 -141 82 -212 284 -236
140 -17 161 -30 156 -98 -4 -64 -227 -69 -380 -8 l-51 20 0 -89 0 -89 48 -11
c151 -34 313 -43 407 -22 149 34 215 119 202 261 -13 126 -78 170 -303 205
-121 18 -154 33 -154 70 0 81 139 93 350 30 67 -20 61 -27 58 71 l-3 89 -78
16 c-97 21 -303 23 -370 4z"/>
<path d="M9328 3645 c-2 -44 -1 -211 2 -370 l5 -290 113 0 c61 0 113 2 113 5
4 17 3 730 -1 731 -3 1 -55 2 -117 3 l-112 2 -3 -81z"/>
</g>
</svg>
